<svg width="614" height="612" viewBox="0 0 614 612" fill="none" xmlns="http://www.w3.org/2000/svg">
<path d="M111.5 611.5V442.5M111.5 283.5C139.5 278.333 187.6 252.3 156 189.5M111.5 283.5C83.8333 277.5 37.8 246.8 75 172L111.5 208.5V236M111.5 283.5V236M111.5 283.5V380.5M156 189.5L111.5 236M156 189.5C147.641 165.815 126.254 132.122 103.7 172M111.5 420C121.167 392.833 155.8 339.6 217 344C213.833 378.667 188.3 446.9 111.5 442.5M111.5 420V442.5M111.5 420V413.5M111.5 442.5L180.5 380.5M111.5 380.5C97.1667 351.833 56.1 297 6.5 307C10.8333 342.667 37.9 413.9 111.5 413.5M111.5 380.5V409M111.5 413.5V409M111.5 409L43 344M103.7 172C101.972 175.056 100.237 178.543 98.5 182.5C94.3 188.7 100.216 178.083 103.7 172Z" stroke="#D49696" stroke-width="10"/>
<path d="M310 610.5V345.5M310 172.5C270.667 168 205.8 133.4 261 31L310 81.5V122M310 172.5C347.108 165.358 401.771 132.945 372.506 58M310 172.5V122M310 172.5V270M285.5 53C301.5 -0.599998 332.5 2.33333 346 10.5C358.337 27.9512 366.94 43.745 372.506 58M372.506 58L310 122M310 345.5C282 347.333 221.1 328.6 201.5 239C231 239.167 294 257 310 327M310 345.5V336.25M310 327V336.25M310 327V293M240 275L310 336.25M310 270C320.167 234.667 362.3 163.8 449.5 163C423.268 291.121 352.499 304.726 315.5 294.741M310 270V293M310 293C311.734 293.636 313.571 294.221 315.5 294.741M315.5 294.741L397 217M523 610.5V452M523 280C495.667 275.167 450 248.2 486 179L523 217V239M523 280C548.767 274.819 586.379 251.482 569 197.619M523 280V239M523 280V387M510 201.5C509.2 161.1 535.333 155 548.5 157C558.546 172.141 565.134 185.635 569 197.619M569 197.619L523 239M523 452C483.667 448.5 403.4 418.6 397 327C427.167 324.333 494.6 340.5 523 426.5M523 452V447M523 426.5V447M523 426.5V408M523 447L442 369.5M523 387C533.833 366.167 566 324.3 608 323.5C605.167 352.5 584.2 410 523 408M523 387V408M523 408L577.5 357" stroke="#D49696" stroke-width="10"/>
</svg>
